<svg xmlns="http://www.w3.org/2000/svg" viewBox="0 0 512 512" role="img" aria-labelledby="title desc">
  <title id="title">altHuntarrrscript</title>
  <desc id="desc">A magnifying glass over film frames</desc>
  <defs>
    <linearGradient id="g" x1="0" y1="0" x2="1" y2="1">
      <stop offset="0" stop-color="#22c55e"/>
      <stop offset="1" stop-color="#0ea5e9"/>
    </linearGradient>
  </defs>
  <rect width="512" height="512" rx="96" fill="#111827"/>
  <path fill="url(#g)" d="M86 116a30 30 0 0 1 30-30h238a30 30 0 0 1 30 30v174a30 30 0 0 1-30 30H116a30 30 0 0 1-30-30zm42 18v42h42v-42zm0 94v44h42v-44zm214-94h-42v42h42zm0 94h-42v44h42zM196 134v138h78V134z"/>
  <circle cx="314" cy="318" r="83" fill="#111827" stroke="#f8fafc" stroke-width="24"/>
  <path d="m374 378 74 74" stroke="#f8fafc" stroke-width="30" stroke-linecap="round"/>
  <circle cx="314" cy="318" r="45" fill="none" stroke="url(#g)" stroke-width="18"/>
</svg>
